<?xml version="1.0" encoding="UTF-8"?>
<svg id="Layer_2" data-name="Layer 2" xmlns="http://www.w3.org/2000/svg" viewBox="0 0 900 160.21">
  <g id="Capa_1" data-name="Capa 1">
    <g>
      <g>
        <path d="M47.13,64.14l2.6,2.61c.22.22.4.15.4-.17v-15.91c0-.31.26-.57.57-.57h15.91c.31,0,.39-.18.17-.4l-2.6-2.6c-.22-.22-.66-.4-.97-.4h-15.91c-.13,0-.24.04-.33.11.09-.07.21-.11.33-.11h2.27c.31,0,.57-.26.57-.57v-2.27c0-.31-.26-.57-.57-.57h-.57c-.31,0-.75-.18-.97-.4l-.9-.9c-.22-.22-.22-.58,0-.8l2.62-2.61c.22-.22.4-.66.4-.97v-9.08c0-.31-.18-.75-.4-.97l-6.02-6.02c-.22-.22-.4-.15-.4.17v15.91c0,.31-.18.75-.4.97l-.9.9c-.22.22-.58.22-.8,0l-2.59-2.59c-.22-.22-.66-.4-.97-.4h-.62c-.31,0-.57.26-.56.57v.6c.01.31.19.75.41.97l2.59,2.59c.22.22.22.58,0,.8l-.9.9c-.22.22-.66.4-.97.4h-15.91c-.31,0-.39.18-.17.4l6.02,6.02c.22.22.66.4.97.4h9.08c.31,0,.75-.18.97-.4l2.62-2.61c.22-.22.59-.23.81,0l.92.88c.23.22.41.65.41.96v.62c0,.31.26.57.57.57h2.27c.31,0,.57-.26.57-.57v13.58c0,.31.18.75.4.97Z"/>
        <path d="M121.5,117.08c.22-.22.66-.4.97-.4h15.91c.31,0,.39-.18.17-.4l-6.02-6.02c-.22-.22-.66-.4-.97-.4h-9.08c-.31,0-.75.18-.97.4l-2.61,2.61c-.22.22-.59.23-.81,0l-.92-.88c-.22-.22-.41-.65-.41-.96v-.62c0-.31-.25-.57-.57-.57h-2.27c-.31,0-.57.26-.57.57v-13.58c0-.31-.18-.75-.4-.97l-2.61-2.61c-.22-.22-.4-.15-.4.17v15.91c0,.31-.26.57-.57.57h-15.91c-.31,0-.39.18-.17.4l2.61,2.6c.22.22.66.4.97.4h13.63c-.31,0-.57.26-.57.57v2.27c0,.31.25.57.57.57h.57c.31,0,.75.18.97.4l.9.9c.22.22.22.58,0,.8l-2.62,2.61c-.22.22-.4.66-.4.97v9.08c0,.31.18.75.4.97l6.02,6.02c.22.22.4.15.4-.17v-15.91c0-.31.18-.75.4-.97l.9-.9c.22-.22.58-.22.8,0l2.59,2.59c.22.22.66.4.97.4h.62c.31,0,.57-.26.56-.57v-.6c-.01-.31-.19-.75-.41-.97l-2.59-2.59c-.22-.22-.22-.58,0-.8l.9-.9Z"/>
        <path d="M159.71,6.69h-5.84c-.31,0-.57.26-.57.57v5.84c0,.31-.26.57-.57.57h-3.82c-.31,0-.75.18-.97.4l-6.01,6.01c-.22.22-.66.4-.97.39h-.6c-.31-.02-.57-.28-.57-.59v-.57c0-.31.18-.75.4-.97l6.01-6.01c.22-.22.4-.66.4-.97v-3.82c0-.31.26-.57.57-.57h5.84c.31,0,.57-.26.57-.57V.57c0-.31-.25-.57-.57-.57h-3.98c-.31,0-.75.18-.97.4l-2.72,2.72c-.22.22-.66.4-.97.4h-2.31c-.31,0-.75.18-.97.4l-.84.84c-.22.22-.4.66-.4.97v2.21c0,.31-.18.75-.4.97l-2.63,2.63c-.22.22-.4.66-.4.97v9.06c0,.31-.18.75-.4.97l-2.62,2.62c-.22.22-.4.65-.4.96v-10.22c0-.31-.17-.75-.39-.97l-2.62-2.62c-.22-.22-.4-.66-.4-.97v-2.27c0-.31-.18-.75-.4-.97l-.9-.9c-.22-.22-.66-.4-.97-.4h-2.27c-.31,0-.75-.18-.97-.4l-2.61-2.61c-.22-.22-.66-.4-.97-.4h-9.1c-.31,0-.75.18-.97.4l-7.73,7.73c-.22.22-.4.66-.4.97v5.7c0,.31.18.75.4.97l4.31,4.31c.22.22.58.22.8,0l9.44-9.44c.22-.22.66-.4.97-.4h2.27c.31,0,.75.18.97.4l7.72,7.72c.22.22.4.66.4.97v7.38c0,.31.26.57.57.57l7.42.03c.32,0,.75.18.97.4l7.72,7.72c.22.22.4.66.4.97v2.27c0,.31-.18.75-.4.97l-9.44,9.44c-.22.22-.22.58,0,.8l4.31,4.31c.22.22.66.4.97.4h5.7c.31,0,.75-.18.97-.4l7.73-7.73c.22-.22.4-.66.4-.97v-9.1c0-.31-.18-.75-.4-.97l-2.61-2.61c-.22-.22-.4-.66-.4-.97v-2.27c0-.31-.18-.75-.4-.97l-.9-.9c-.22-.22-.66-.4-.97-.4h-2.27c-.31,0-.75-.18-.97-.4l-2.62-2.62c-.22-.22-.66-.4-.97-.4h-10.8c-.31,0-.57-.26-.57-.57h0c0,.3.26.56.57.56h.57c.31.01.75-.17.97-.39l2.62-2.62c.22-.22.66-.4.97-.4h9.06c.32,0,.75-.18.97-.4l2.63-2.64c.22-.22.66-.4.97-.4h2.21c.31,0,.75-.18.97-.4l.84-.84c.22-.22.4-.66.4-.97v-2.31c0-.31.18-.75.4-.97l2.72-2.72c.22-.22.4-.66.4-.97v-3.98c0-.31-.26-.57-.57-.57Z"/>
        <path d="M95.06,48.71c-.31,0-.75.18-.97.4l-2.61,2.6c-.22.22-.15.4.17.4h15.91c.31,0,.57.26.57.57v15.91c0,.31.18.39.4.17l2.61-2.61c.22-.22.4-.66.4-.97v-13.58c0,.31.26.57.57.57h2.27c.31,0,.57-.26.57-.57v-.62c0-.31.19-.75.41-.96l.92-.88c.22-.22.59-.21.81,0l2.62,2.61c.22.22.66.4.97.4h9.08c.31,0,.75-.18.97-.4l6.02-6.02c.22-.22.15-.4-.17-.4h-15.91c-.31,0-.75-.18-.97-.4l-.9-.9c-.22-.22-.22-.58,0-.8l2.59-2.59c.22-.22.4-.66.41-.97v-.6c.01-.31-.24-.57-.55-.57h-.62c-.31,0-.75.18-.97.4l-2.59,2.59c-.22.22-.58.22-.8,0l-.9-.9c-.22-.22-.4-.66-.4-.97v-15.91c0-.31-.18-.39-.4-.17l-6.02,6.02c-.22.22-.4.66-.4.97v9.08c0,.31.18.75.4.97l2.62,2.61c.22.22.22.58,0,.8l-.9.9c-.22.22-.66.4-.97.4h-.57c-.31,0-.57.26-.57.57v2.27c0,.31.25.57.57.57h2.27c.14,0,.26.05.36.14-.1-.08-.22-.13-.36-.13h-15.91Z"/>
        <path d="M3.13,14.93c.22.22.4.66.4.97v2.31c0,.31.18.75.4.97l.84.84c.22.22.66.4.97.4h2.21c.31,0,.75.18.97.4l2.63,2.64c.22.22.66.4.97.4h9.06c.31,0,.75.18.97.4l2.62,2.62c.22.22.66.4.97.39h.57c.31,0,.57-.27.57-.58h0c0,.32-.25.58-.57.58h-10.8c-.31,0-.75.18-.97.4l-2.63,2.62c-.22.22-.66.4-.97.4h-2.27c-.31,0-.75.18-.97.4l-.9.9c-.22.22-.4.66-.4.97v2.27c0,.31-.18.75-.4.97l-2.61,2.61c-.22.22-.4.66-.4.97v9.1c0,.31.18.75.4.97l7.73,7.73c.22.22.66.4.97.4h5.7c.31,0,.75-.18.97-.4l4.31-4.31c.22-.22.22-.58,0-.8l-9.44-9.44c-.22-.22-.4-.66-.4-.97v-2.27c0-.31.18-.75.4-.97l7.72-7.72c.22-.22.66-.4.97-.4l7.42-.03c.31,0,.57-.26.57-.57v-7.38c0-.31.18-.75.4-.97l7.72-7.72c.22-.22.66-.4.97-.4h2.27c.31,0,.75.18.97.4l9.44,9.44c.22.22.58.22.8,0l4.31-4.31c.22-.22.4-.66.4-.97v-5.7c0-.31-.18-.75-.4-.97l-7.73-7.73c-.22-.22-.66-.4-.97-.4h-9.1c-.31,0-.75.18-.97.4l-2.61,2.61c-.22.22-.66.4-.97.4h-2.27c-.31,0-.75.18-.97.4l-.9.9c-.22.22-.4.66-.4.97v2.27c0,.31-.18.75-.4.97l-2.63,2.62c-.22.22-.4.66-.4.97v10.22c0-.31-.18-.74-.4-.96l-2.62-2.62c-.22-.22-.4-.66-.4-.97v-9.06c0-.31-.18-.75-.4-.97l-2.63-2.63c-.22-.22-.4-.66-.4-.97v-2.21c0-.31-.18-.75-.4-.97l-.84-.84c-.22-.22-.66-.4-.97-.4h-2.31c-.31,0-.75-.18-.97-.4L12.21.4c-.22-.22-.66-.4-.97-.4h-3.98c-.31,0-.57.26-.57.57v5.84c0,.31.26.57.57.57h5.84c.31,0,.57.26.57.57v3.82c0,.31.18.75.4.97l6.01,6.01c.22.22.4.66.4.97v.57c0,.31-.25.57-.57.58h-.6c-.31.02-.75-.16-.97-.38l-6.01-6.01c-.22-.22-.66-.4-.97-.4h-3.82c-.31,0-.57-.26-.57-.57v-5.84c0-.31-.26-.57-.57-.57H.57c-.31,0-.57.26-.57.57v3.98c0,.31.18.75.4.97l2.72,2.72Z"/>
        <path d="M157.15,145.27c-.22-.22-.4-.66-.4-.97v-2.31c0-.31-.18-.75-.4-.97l-.84-.84c-.22-.22-.66-.4-.97-.4h-2.21c-.31,0-.75-.18-.97-.4l-2.63-2.63c-.22-.22-.66-.4-.97-.4h-9.06c-.31,0-.75-.18-.97-.4l-2.62-2.62c-.22-.22-.66-.4-.97-.39h-.57c-.31,0-.57.27-.57.58h0c0-.33.26-.58.57-.58h10.8c.31,0,.75-.18.97-.4l2.62-2.62c.22-.22.66-.4.97-.4h2.27c.32,0,.75-.18.97-.4l.9-.9c.22-.22.4-.66.4-.97v-2.27c0-.31.18-.75.4-.97l2.61-2.61c.22-.22.4-.66.4-.97v-9.1c0-.31-.18-.75-.4-.97l-7.73-7.73c-.22-.22-.66-.4-.97-.4h-5.7c-.31,0-.75.18-.97.4l-4.31,4.31c-.22.22-.22.58,0,.8l9.44,9.44c.22.22.4.66.4.97v2.27c0,.31-.18.75-.4.97l-7.72,7.72c-.22.22-.66.4-.97.4l-7.42.03c-.31,0-.57.26-.57.57v7.39c0,.31-.18.75-.4.97l-7.72,7.72c-.22.22-.66.4-.97.4h-2.27c-.31,0-.75-.18-.97-.4l-9.44-9.44c-.22-.22-.58-.22-.8,0l-4.31,4.31c-.22.22-.4.66-.4.97v5.7c0,.31.18.75.4.97l7.73,7.73c.22.22.66.4.97.4h9.1c.31,0,.75-.18.97-.4l2.61-2.61c.22-.22.66-.4.97-.4h2.27c.31,0,.75-.18.97-.4l.9-.9c.22-.22.4-.66.4-.97v-2.27c0-.31.18-.75.4-.97l2.62-2.62c.22-.22.4-.66.4-.97v-10.22c0,.31.18.74.4.96l2.62,2.62c.22.22.4.66.4.97v9.06c0,.31.18.75.4.97l2.63,2.63c.22.22.4.66.4.97v2.21c0,.31.18.75.4.97l.84.84c.22.22.66.4.97.4h2.31c.31,0,.75.18.97.4l2.72,2.72c.22.22.66.4.97.4h3.98c.31,0,.57-.26.57-.57v-5.84c0-.31-.25-.57-.57-.57h-5.84c-.31,0-.57-.26-.57-.57v-3.82c0-.31-.18-.75-.4-.97l-6.01-6.01c-.22-.22-.4-.66-.4-.97v-.57c0-.31.25-.57.57-.58h.6c.31-.02.75.16.97.38l6.01,6.01c.22.22.66.4.97.4h3.82c.31,0,.57.26.57.57v5.84c0,.31.25.57.57.57h5.84c.31,0,.57-.26.57-.57v-3.98c0-.31-.18-.75-.4-.97l-2.72-2.72Z"/>
        <path d="M49.34,93.86l-2.6,2.6c-.22.22-.4.66-.4.97v13.58c0-.31-.26-.57-.57-.57h-2.27c-.31,0-.57.26-.57.57v.62c0,.31-.18.75-.41.96l-.92.88c-.23.22-.59.21-.81,0l-2.62-2.61c-.22-.22-.66-.4-.97-.4h-9.08c-.31,0-.75.18-.97.4l-6.02,6.02c-.22.22-.15.4.17.4h15.91c.31,0,.75.18.97.4l.9.9c.22.22.22.58,0,.8l-2.59,2.59c-.22.22-.4.66-.41.97v.6c-.01.31.24.57.55.57h.62c.31,0,.75-.18.97-.4l2.59-2.59c.22-.22.58-.22.81,0l.9.9c.22.22.4.66.4.97v15.91c0,.31.18.39.4.17l6.02-6.02c.22-.22.4-.66.4-.97v-9.08c0-.31-.18-.75-.4-.97l-2.61-2.61c-.22-.22-.22-.58,0-.8l.9-.9c.22-.22.66-.4.97-.4h.57c.31,0,.57-.25.57-.57v-2.27c0-.31-.26-.57-.57-.57h13.63c.31,0,.75-.18.97-.4l2.6-2.61c.22-.22.15-.4-.17-.4h-15.91c-.31,0-.57-.26-.57-.57v-15.91c0-.31-.18-.39-.4-.17Z"/>
        <path d="M95.86,128.25c-.22-.22-.4-.66-.4-.97v-2.29c0-.31-.18-.75-.4-.97l-6-6.01c-.19-.19-.35-.16-.39.05v-3.31c0-.31-.18-.75-.4-.97l-2.6-2.61c-.22-.22-.4-.66-.4-.97v-2.27c0-.31-.18-.75-.4-.97l-2.6-2.6c-.22-.22-.4-.66-.4-.97v-3.43c.16-.28.26-.61.25-.94-.05-1.09-.27-2.17-.34-3.26-.02-.34.1-.82.34-1.02.57-.49.85-1.09.97-1.8.34-1.99,1.44-3.26,3.44-3.75,1.63-.41,2.68-1.51,3.13-3.1.59-2.09,1.88-3.35,4.06-3.62.63-.08,1.16-.33,1.47-.9.26-.49.64-.52,1.13-.41.11.02.22.05.33.07l.17.17c.22.22.66.4.97.4h5.68c.31,0,.75.18.97.4l2.6,2.6c.22.22.66.4.97.4h2.28c.31,0,.75.18.97.4l2.6,2.6c.22.22.66.4.97.4h3.31c-.22.04-.25.2-.06.39l6,6.01c.22.22.66.4.97.4h2.29c.31,0,.75.18.97.4l2.62,2.63c.22.22.66.4.97.4h2.23c.31,0,.75-.18.97-.4l2.6-2.6c.22-.22.66-.4.97-.4h2.27c.31,0,.75-.18.97-.4l.9-.9c.22-.22.4-.66.4-.97v-3.98c0-.31-.25-.57-.57-.57h-5.09c.29-.01.35-.19.14-.4l-2.6-2.6c-.22-.22-.66-.4-.97-.4h-2.27c-.31,0-.75-.18-.97-.4l-2.61-2.6c-.22-.22-.66-.4-.97-.4h-15.91c-.31,0-.75-.18-.97-.4l-.9-.9c-.22-.22-.22-.58,0-.8l.9-.9c.22-.22.66-.4.97-.4h15.91c.31,0,.75-.18.97-.4l2.61-2.6c.22-.22.66-.4.97-.4h2.27c.31,0,.75-.18.97-.4l2.6-2.6c.22-.22.15-.39-.14-.4h5.09c.31,0,.57-.26.57-.57v-3.98c0-.31-.18-.75-.4-.97l-.9-.9c-.22-.22-.66-.4-.97-.4h-2.27c-.31,0-.75-.18-.97-.4l-2.6-2.6c-.22-.22-.66-.4-.97-.4h-2.23c-.31,0-.75.18-.97.4l-2.62,2.62c-.22.22-.66.4-.97.4h-2.29c-.31,0-.75.18-.97.4l-6,6c-.19.19-.16.35.06.39h-3.31c-.31,0-.75.18-.97.4l-2.6,2.6c-.22.22-.66.4-.97.4h-2.28c-.31,0-.75.18-.97.4l-2.6,2.6c-.22.22-.66.4-.97.4h-3.21c-.41-.21-.85-.3-1.36-.2-.88.17-1.78.24-2.66.41-.45.09-.77.03-1.03-.36-.39-.6-.95-.9-1.67-1-1.95-.26-3.26-1.31-3.75-3.24-.5-1.98-1.78-3.1-3.69-3.6-1.75-.46-2.63-1.67-2.96-3.37-.14-.71-.23-1.46-.91-1.89-.51-.32-.56-.73-.46-1.28.17-.98.33-1.97.38-2.96.02-.35-.09-.71-.27-1.02v-3.07c0-.31.18-.75.4-.97l2.6-2.61c.22-.22.4-.66.4-.97v-2.27c0-.31.18-.75.4-.97l2.6-2.61c.22-.22.4-.66.4-.97v-3.31c.04.21.2.25.39.05l6-6c.22-.22.4-.66.4-.97v-2.29c0-.31.18-.75.4-.97l2.63-2.62c.22-.22.4-.66.4-.97v-2.23c0-.31-.18-.75-.4-.97l-2.6-2.6c-.22-.22-.4-.66-.4-.97v-2.27c0-.31-.18-.75-.4-.97l-.9-.9c-.22-.22-.66-.4-.97-.4h-3.98c-.31,0-.57.25-.57.57v5.09c-.01-.29-.19-.35-.4-.14l-2.6,2.6c-.22.22-.4.66-.4.97v2.27c0,.31-.18.75-.4.97l-2.6,2.6c-.22.22-.4.66-.4.97v15.91c0,.31-.18.75-.4.97l-.9.9c-.22.22-.58.22-.8,0l-.9-.9c-.22-.22-.4-.66-.4-.97v-15.91c0-.31-.18-.75-.4-.97l-2.6-2.6c-.22-.22-.4-.66-.4-.97v-2.27c0-.31-.18-.75-.4-.97l-2.61-2.6c-.21-.21-.39-.15-.4.14v-5.08c0-.31-.26-.57-.57-.57h-3.98c-.31,0-.75.18-.97.4l-.9.9c-.22.22-.4.66-.4.97v2.27c0,.31-.18.75-.4.97l-2.6,2.6c-.22.22-.4.66-.4.97v2.23c0,.31.18.75.4.97l2.63,2.62c.22.22.4.66.4.97v2.29c0,.31.18.75.4.97l6,6c.19.19.35.16.39-.05v3.3c0,.31.18.75.4.97l2.61,2.61c.22.22.4.66.4.97v2.27c0,.31.18.75.4.97l2.6,2.61c.22.22.4.66.4.97v5.68c0,.31.18.75.4.97l.21.21c.01.12.03.24.04.35.03.31-.03.79-.23.92-.84.54-.98,1.39-1.19,2.23-.37,1.51-1.17,2.72-2.74,3.17-2.15.61-3.55,1.84-4.03,4.12-.3,1.4-1.98,2.63-3.41,2.77-.68.06-1.37.16-1.75.83-.34.61-.81.67-1.45.52-.87-.21-1.76-.39-2.65-.45-.43-.03-.84.08-1.18.27h-3.61c-.31,0-.75-.18-.97-.4l-2.61-2.6c-.22-.22-.66-.4-.97-.4h-2.27c-.31,0-.75-.18-.97-.4l-2.61-2.6c-.22-.22-.66-.4-.97-.4h-3.31c.22-.04.25-.2.06-.39l-6.01-6c-.22-.22-.66-.4-.97-.4h-2.29c-.31,0-.75-.18-.97-.4l-2.62-2.62c-.22-.22-.66-.4-.97-.4h-2.23c-.31,0-.75.18-.97.4l-2.6,2.6c-.22.22-.66.4-.97.4h-2.27c-.31,0-.75.18-.97.4l-.9.9c-.22.22-.4.66-.4.97v3.98c0,.31.25.57.57.57h5.09c-.29.01-.36.19-.14.4l2.6,2.6c.22.22.66.4.97.4h2.28c.31,0,.75.18.97.4l2.6,2.6c.22.22.66.4.97.4h15.91c.31,0,.75.18.97.4l.9.9c.22.22.22.58,0,.8l-.9.9c-.22.22-.66.4-.97.4h-15.91c-.31,0-.75.18-.97.4l-2.6,2.6c-.22.22-.66.4-.97.4h-2.28c-.31,0-.75.18-.97.4l-2.6,2.6c-.22.22-.15.39.14.4h-5.09c-.31,0-.57.26-.57.57v3.98c0,.31.18.75.4.97l.9.9c.22.22.66.4.97.4h2.27c.31,0,.75.18.97.4l2.6,2.6c.22.22.66.4.97.4h2.23c.31,0,.75-.18.97-.4l2.62-2.63c.22-.22.66-.4.97-.4h2.29c.31,0,.75-.18.97-.4l6.01-6.01c.19-.19.16-.35-.06-.39h3.31c.31,0,.75-.18.97-.4l2.61-2.6c.22-.22.66-.4.97-.4h2.27c.31,0,.75-.18.97-.4l2.61-2.6c.22-.22.66-.4.97-.4h5.68c.31,0,.75-.18.97-.4l.05-.05c.35-.06.71-.13,1.06-.2.47-.1.8,0,1.01.38.35.65.94.86,1.6.96,2.09.31,3.41,1.43,3.92,3.55.41,1.72,1.64,2.75,3.3,3.21,1.89.52,2.91,1.76,3.33,3.64.13.6.41,1.27.84,1.68.51.48.55.93.45,1.52-.03.18-.06.36-.09.54l-.13.13c-.22.22-.4.66-.4.97v5.68c0,.31-.18.75-.4.97l-2.6,2.6c-.22.22-.4.66-.4.97v2.27c0,.31-.18.75-.4.97l-2.61,2.61c-.22.22-.4.66-.4.97v3.3c-.04-.21-.2-.24-.39-.05l-6,6.01c-.22.22-.4.66-.4.97v2.29c0,.31-.18.75-.4.97l-2.63,2.63c-.22.22-.4.66-.4.97v2.23c0,.31.18.75.4.97l2.6,2.61c.22.22.4.66.4.97v2.27c0,.31.18.75.4.97l.9.9c.22.22.66.4.97.4h3.98c.31,0,.57-.25.57-.57v-5.08c.02.28.19.35.4.14l2.61-2.61c.22-.22.4-.66.4-.97v-2.27c0-.31.18-.75.4-.97l2.6-2.61c.22-.22.4-.66.4-.97v-15.91c0-.31.18-.75.4-.97l.9-.9c.22-.22.58-.22.8,0l.9.9c.22.22.4.66.4.97v15.91c0,.31.18.75.4.97l2.6,2.61c.22.22.4.66.4.97v2.27c0,.31.18.75.4.97l2.6,2.61c.22.21.39.15.4-.14v5.08c0,.31.26.57.57.57h3.98c.31,0,.75-.18.97-.4l.9-.9c.22-.22.4-.66.4-.97v-2.27c0-.31.18-.75.4-.97l2.6-2.61c.22-.22.4-.66.4-.97v-2.23c0-.31-.18-.75-.4-.97l-2.63-2.63ZM85.93,80.34c0,.52-.34.9-.86.99-.19.03-.38.03-.57,0-.76-.14-1.39-.55-1.96-.99.43-.33.81-.56,1.19-.74.51-.23.92-.31,1.31-.26.54.07.89.47.89,1.01ZM82.45,76.83c.18-.43.38-.72.65-.93.22-.17.44-.26.66-.26.14,0,.29.04.44.11.37.18.56.48.58.9,0,.21-.06.41-.19.6-.17.24-.41.44-.77.62-.55.28-1.15.4-1.74.48.08-.61.2-1.09.38-1.52ZM83.64,82.66c.28.14.49.28.65.45.34.36.44.74.28,1.14-.15.4-.53.65-.99.65-.39-.02-.72-.25-1.02-.72-.38-.61-.53-1.3-.62-1.98.49.07,1.12.18,1.7.46ZM76.08,75.75c.37-.18.73-.14,1.1.15.26.21.46.5.65.93.18.43.3.91.38,1.52-.58-.08-1.18-.2-1.74-.48-.36-.18-.6-.38-.77-.62-.13-.19-.2-.39-.19-.6.01-.41.21-.72.58-.9ZM74.35,80.34c0-.53.35-.94.89-1.01.08,0,.16-.02.23-.02.33,0,.67.09,1.09.28.38.17.76.41,1.19.74-.57.43-1.2.84-1.96.99-.19.04-.38.04-.57,0-.52-.08-.85-.47-.86-.99ZM77.71,84.18c-.29.47-.63.71-1.02.72-.47,0-.84-.24-.99-.65-.15-.41-.06-.78.28-1.14.16-.17.37-.31.65-.45.57-.27,1.18-.39,1.7-.46-.09.67-.24,1.37-.62,1.98ZM79.26,74.59c.14-.41.51-.66.95-.66.04,0,.08,0,.12,0,.45.05.81.4.87.87,0,.06.01.13.01.17v.04c0,.51-.17.92-.41,1.4-.17.33-.39.64-.6.92-.39-.52-.76-1.09-.94-1.76-.1-.38-.1-.7,0-.99ZM80.81,86.07c-.24.19-.56.25-.89.16-.38-.1-.66-.43-.72-.83-.08-.6.14-1.13.39-1.61.15-.29.34-.58.6-.92.4.54.83,1.17.98,1.93.02.08.02.16.03.24v.11c.01.38-.13.72-.39.93ZM80.16,81.37c-.64,0-1.16-.5-1.2-1.13,0-.02,0-.05,0-.08,0-.66.54-1.21,1.21-1.21s1.21.54,1.21,1.21-.54,1.21-1.21,1.21Z"/>
        <path d="M53.29,136.73c-.22-.22-.58-.22-.8,0l-9.44,9.44c-.22.22-.66.4-.97.4h-2.27c-.31,0-.75-.18-.97-.4l-7.72-7.72c-.22-.22-.4-.66-.4-.97v-7.39c0-.31-.26-.57-.57-.57l-7.42-.03c-.31,0-.75-.18-.97-.4l-7.72-7.72c-.22-.22-.4-.66-.4-.97v-2.27c0-.31.18-.75.4-.97l9.44-9.44c.22-.22.22-.58,0-.8l-4.31-4.31c-.22-.22-.66-.4-.97-.4h-5.7c-.31,0-.75.18-.97.4l-7.73,7.73c-.22.22-.4.66-.4.97v9.1c0,.31.18.75.4.97l2.61,2.61c.22.22.4.66.4.97v2.27c0,.31.18.75.4.97l.9.9c.22.22.66.4.97.4h2.27c.31,0,.75.18.97.4l2.63,2.62c.22.22.66.4.97.4h10.8c.31,0,.57.26.57.57h0c0-.3-.26-.56-.57-.56h-.57c-.31-.01-.75.17-.97.39l-2.62,2.62c-.22.22-.66.4-.97.4h-9.06c-.31,0-.75.18-.97.4l-2.63,2.63c-.22.22-.66.4-.97.4h-2.21c-.31,0-.75.18-.97.4l-.84.84c-.22.22-.4.66-.4.97v2.31c0,.31-.18.75-.4.97l-2.72,2.72c-.22.22-.4.66-.4.97v3.98c0,.31.26.57.57.57h5.84c.31,0,.57-.26.57-.57v-5.84c0-.31.26-.57.57-.57h3.82c.31,0,.75-.18.97-.4l6.01-6.01c.22-.22.66-.4.97-.39h.6c.31.02.57.28.57.59v.57c0,.31-.18.75-.4.97l-6.01,6.01c-.22.22-.4.66-.4.97v3.82c0,.31-.26.57-.57.57h-5.84c-.31,0-.57.26-.57.57v5.84c0,.31.26.57.57.57h3.98c.31,0,.75-.18.97-.4l2.72-2.72c.22-.22.66-.4.97-.4h2.31c.31,0,.75-.18.97-.4l.84-.84c.22-.22.4-.66.4-.97v-2.21c0-.31.18-.75.4-.97l2.63-2.63c.22-.22.4-.66.4-.97v-9.06c0-.31.18-.75.4-.97l2.62-2.62c.22-.22.4-.65.4-.96v10.22c0,.31.17.75.39.97l2.63,2.62c.22.22.4.66.4.97v2.27c0,.31.18.75.4.97l.9.9c.22.22.66.4.97.4h2.27c.31,0,.75.18.97.4l2.61,2.61c.22.22.66.4.97.4h9.1c.31,0,.75-.18.97-.4l7.73-7.73c.22-.22.4-.66.4-.97v-5.7c0-.31-.18-.75-.4-.97l-4.31-4.31Z"/>
        <path d="M85.65,138.46c-.22-.22-.4-.15-.4.17,0-.31-.18-.75-.4-.97l-2.6-2.61c-.22-.22-.4-.66-.4-.97v-2.23c0-.31-.18-.75-.4-.97l-.91-.91c-.22-.22-.58-.22-.8,0l-.9.9c-.22.22-.4.66-.4.97v2.23c0,.31-.18.75-.4.97l-2.61,2.61c-.22.22-.4.66-.4.97,0-.31-.18-.39-.4-.17l-2.6,2.6c-.22.22-.4.66-.4.97v5.68c0,.31.18.75.4.97l2.6,2.6c.22.22.4.15.4-.16v3.41c0,.31.18.75.4.97l4.31,4.31c.22.22.58.22.8,0l4.31-4.31c.22-.22.4-.66.4-.97v-3.41c0,.31.18.39.4.17l2.59-2.6c.22-.22.4-.66.4-.97v-5.68c0-.31-.18-.75-.4-.97l-2.59-2.6Z"/>
        <path d="M74.62,21.75c.22.22.4.15.4-.17,0,.31.18.75.4.97l2.61,2.61c.22.22.4.66.4.97v2.23c0,.31.18.75.4.97l.9.9c.22.22.58.22.8,0l.91-.9c.22-.22.4-.66.4-.97v-2.23c0-.31.18-.75.4-.97l2.6-2.61c.22-.22.4-.66.4-.97,0,.31.18.39.4.17l2.59-2.6c.22-.22.4-.66.4-.97v-5.68c0-.31-.18-.75-.4-.97l-2.59-2.6c-.22-.22-.4-.15-.4.17v-3.41c0-.31-.18-.75-.4-.97l-4.31-4.31c-.22-.22-.58-.22-.8,0l-4.31,4.31c-.22.22-.4.66-.4.97v3.41c0-.31-.18-.39-.4-.16l-2.6,2.6c-.22.22-.4.66-.4.97v5.68c0,.31.18.75.4.97l2.6,2.6Z"/>
        <path d="M141.09,73.22l-1.78,1.78h-.66c-.31,0-.75.18-.97.4l-2.6,2.6c-.22.22-.66.4-.97.4h-2.23c-.31,0-.75.18-.97.4l-.91.9c-.22.22-.22.58,0,.8l.91.9c.22.22.66.4.97.4h2.23c.31,0,.75.18.97.4l2.6,2.6c.22.22.66.4.97.4h.66l1.78,1.78c.22.22.66.4.97.4h5.68c.31,0,.75-.18.97-.4l1.78-1.78h4.07c.31,0,.75-.18.97-.4l4.31-4.31c.22-.22.22-.58,0-.8l-4.31-4.31c-.22-.22-.66-.4-.97-.4h-4.07l-1.78-1.78c-.22-.22-.66-.4-.97-.4h-5.68c-.31,0-.75.18-.97.4Z"/>
        <path d="M9.78,74.99h-4.07c-.31,0-.75.18-.97.4l-4.31,4.31c-.22.22-.22.58,0,.8l4.31,4.31c.22.22.66.4.97.4h4.07l1.78,1.78c.22.22.66.4.97.4h5.68c.31,0,.75-.18.97-.4l1.78-1.78h.66c.31,0,.75-.18.97-.4l2.6-2.6c.22-.22.66-.4.97-.4h2.23c.31,0,.75-.18.97-.4l.9-.9c.22-.22.22-.58,0-.8l-.9-.9c-.22-.22-.66-.4-.97-.4h-2.23c-.31,0-.75-.18-.97-.4l-2.6-2.6c-.22-.22-.66-.4-.97-.4h-.66l-1.78-1.78c-.22-.22-.66-.4-.97-.4h-5.68c-.31,0-.75.18-.97.4l-1.78,1.78Z"/>
      </g>
      <g>
        <path d="M785.66,143.27c-5.95-5.09-11.57-9.9-16.79-15.16-6.86-6.92-13.58-14.23-20.08-21.3-4.44-4.83-9.03-9.82-13.63-14.65-2.16-2.26-4.67-4.23-7.1-6.13-.75-.59-1.52-1.19-2.29-1.81l6.45-6.03c5.97-5.58,12.13-11.35,18.3-17.1,6-5.6,12.02-11.18,18.03-16.77l8.74-8.13-3.32-3.58-56.83,52.69v-50.95h-24.88l5.78,2.41c4.82,2.01,6.78,5.34,6.77,11.49-.07,23.43-.06,47.25-.05,70.29,0,8.11,0,16.22,0,24.33v7.92h12.59v-59.78c.14.15.28.29.42.44,1.32,1.38,2.31,2.43,3.29,3.48,3.5,3.75,7.02,7.6,10.43,11.33,8.15,8.91,16.58,18.12,25.35,26.71,6.61,6.47,14.63,11.64,22.31,16.26,2.74,1.65,6.11,2.15,9.37,2.63,1.44.21,2.92.43,4.32.75l4.77,1.07-3.66-3.24c-2.81-2.48-5.6-4.87-8.3-7.18Z"/>
        <path d="M562.46,33.83c-.87.29-1.76.6-1.77,1.62-.06,31.05-.06,62.62-.06,93.16v2.59c-.19-.26-.38-.51-.58-.77-.81-1.08-1.64-2.19-2.41-3.31-5.6-8.11-11.2-16.21-16.79-24.32-14.57-21.1-29.64-42.92-44.49-64.36l-.17-.24c-1.31-1.89-2.94-4.25-4.99-4.46-3.8-.39-7.67-.32-11.41-.26-1.42.02-2.88.05-4.31.05h-6.35l5.87,2.41c6.95,2.86,7.49,8.16,7.46,14.29-.16,32.81-.2,65.68-.21,93.51,0,1.52.27,3,.54,4.44.12.66.24,1.28.33,1.91l.18,1.23,4.63-.62V47.49l.23.32c.79,1.12,1.59,2.25,2.37,3.38l13.08,18.91c17.63,25.48,35.86,51.84,53.84,77.72.92,1.32,2.09,2.41,3.45,3.66.7.65,1.43,1.32,2.21,2.1l2.14,2.14V32.76l-1.72.69c-.38.15-.74.27-1.06.38Z"/>
        <path d="M392.92,90.15h39.49l-.14-4.25h-39.35v-47.73h49.9l-.28-4.24h-76.47l6.86,2.44c5.89,2.09,7.03,6.29,7.01,12.85-.07,23.09-.06,46.57-.05,69.27,0,8.07,0,16.14,0,24.21v7.48h63.86l.04-4.22h-50.87v-55.81Z"/>
        <path d="M615.52,90.66h39.5l.03-4.73h-39.54v-47.81h50l-.13-4.07h-75.84l6.19,2.42c5.75,2.25,6.92,6.38,6.9,11.89-.07,23.43-.06,47.25-.05,70.28,0,8.12,0,16.23,0,24.35v7l1.03.19c4.12.74,13.73,1.12,24.25,1.12,16.9,0,36.16-1,38.82-3.15l2.76-2.23h-53.94v-55.27Z"/>
        <path d="M341.66,50.03c-.34-2.93-.7-5.96-.65-8.89.04-2.62-.47-4.38-1.63-5.55-1.54-1.56-3.94-1.75-6.08-1.74-20.11.14-40.56.13-60.34.12-8.38,0-16.77,0-25.15,0-1.29,0-2.58.1-3.82.2-.58.05-1.16.09-1.74.13l-1.09.07-1.72,22.4,2.21-1.63c2.37-1.75,3.54-3.82,4.66-5.82l.28-.5c3.41-6.01,7.38-9.13,12.14-9.52,6.11-.51,12.24-.4,18.73-.28,2.4.04,4.86.09,7.37.1v111.77h12.6V38.99c2.25-.02,4.49-.1,6.67-.17,6.1-.2,11.86-.39,17.45.53,4,.66,8,4.12,11.53,7.18l.9.77c1.35,1.17,2.22,3.04,3.14,5.03.43.93.88,1.9,1.38,2.8l.48.86,3.24-.89-.1-1.05c-.12-1.35-.28-2.71-.44-4.03Z"/>
        <path d="M898.8,147.24c-6.32-1.31-8.61-6.22-10.58-11.56-11.22-30.49-22.71-61.47-33.83-91.42l-2.72-7.33c-.48-1.29-1.06-2.53-1.62-3.73-.26-.55-.52-1.1-.76-1.65l-.34-.77-3.48.11-39.94,118.05-.37,1.11,4.04,1.69.53-1.04c.26-.51.53-1.01.83-1.54.64-1.16,1.31-2.37,1.75-3.68l.32-.94c3.45-10.18,7.01-20.7,10.27-31.14.85-2.74,1.94-3.52,4.83-3.46,11.27.21,22.86.21,34.44,0,2.62-.05,3.63.67,4.52,3.22,3.35,9.62,7.05,19.74,11.99,32.81.42,1.12,1.97,4.77,4.16,4.97,3.79.34,7.65.29,11.38.24,1.36-.02,2.72-.04,4.08-.04h1.05l.66-3.65-1.2-.25ZM825.92,104.44l18.2-54.64,19.46,54.64h-37.65Z"/>
        <rect x="379.1" y="4.7" width="59.38" height="4.6"/>
      </g>
    </g>
  </g>
</svg>